<mxfile host="app.diagrams.net" modified="2021-01-18T03:13:40.614Z" agent="5.0 (Windows NT 10.0; Win64; x64) AppleWebKit/537.36 (KHTML, like Gecko) Chrome/87.0.4280.141 Safari/537.36" etag="lpKO-J5Gr89NTkO2WOFR" version="14.2.4" type="github">
  <diagram name="Page-1" id="74e2e168-ea6b-b213-b513-2b3c1d86103e">
    <mxGraphModel dx="1449" dy="762" grid="1" gridSize="10" guides="1" tooltips="1" connect="1" arrows="1" fold="1" page="1" pageScale="1" pageWidth="1100" pageHeight="850" background="#ffffff" math="0" shadow="0">
      <root>
        <mxCell id="0" />
        <mxCell id="1" parent="0" />
        <mxCell id="77e6c97f196da883-1" value="&lt;font style=&quot;font-size: 14px&quot;&gt;Direct sale application flow&lt;/font&gt;" style="swimlane;html=1;childLayout=stackLayout;startSize=20;rounded=0;shadow=0;labelBackgroundColor=none;strokeWidth=1;fontFamily=Verdana;fontSize=8;align=center;swimlaneLine=1;" parent="1" vertex="1">
          <mxGeometry x="70" y="40" width="1367.5" height="980" as="geometry" />
        </mxCell>
        <mxCell id="77e6c97f196da883-2" value="Direct sale" style="swimlane;html=1;startSize=20;" parent="77e6c97f196da883-1" vertex="1">
          <mxGeometry y="20" width="160" height="960" as="geometry" />
        </mxCell>
        <mxCell id="77e6c97f196da883-8" value="Contact customer&lt;br style=&quot;font-size: 12px;&quot;&gt;Get ACCA form" style="rounded=0;whiteSpace=wrap;html=1;shadow=0;labelBackgroundColor=none;strokeWidth=1;fontFamily=Verdana;fontSize=12;align=center;" parent="77e6c97f196da883-2" vertex="1">
          <mxGeometry x="30" y="65" width="100" height="60" as="geometry" />
        </mxCell>
        <mxCell id="6CpwiZrn1924ETf3o55--40" style="edgeStyle=orthogonalEdgeStyle;rounded=0;orthogonalLoop=1;jettySize=auto;html=1;fontSize=12;" edge="1" parent="77e6c97f196da883-2" source="6CpwiZrn1924ETf3o55--9" target="77e6c97f196da883-8">
          <mxGeometry relative="1" as="geometry" />
        </mxCell>
        <mxCell id="6CpwiZrn1924ETf3o55--9" value="Return sale" style="whiteSpace=wrap;html=1;rounded=0;shadow=0;fontFamily=Verdana;fontSize=12;strokeWidth=1;" vertex="1" parent="77e6c97f196da883-2">
          <mxGeometry x="20" y="276.25" width="120" height="60" as="geometry" />
        </mxCell>
        <mxCell id="77e6c97f196da883-26" style="edgeStyle=orthogonalEdgeStyle;rounded=1;html=1;labelBackgroundColor=none;startArrow=none;startFill=0;startSize=5;endArrow=classicThin;endFill=1;endSize=5;jettySize=auto;orthogonalLoop=1;strokeWidth=1;fontFamily=Verdana;fontSize=12;" parent="77e6c97f196da883-1" source="77e6c97f196da883-8" target="77e6c97f196da883-11" edge="1">
          <mxGeometry relative="1" as="geometry" />
        </mxCell>
        <mxCell id="77e6c97f196da883-3" value="DE" style="swimlane;html=1;startSize=20;" parent="77e6c97f196da883-1" vertex="1">
          <mxGeometry x="160" y="20" width="160" height="960" as="geometry" />
        </mxCell>
        <mxCell id="77e6c97f196da883-11" value="Entry data" style="rounded=0;whiteSpace=wrap;html=1;shadow=0;labelBackgroundColor=none;strokeWidth=1;fontFamily=Verdana;fontSize=12;align=center;" parent="77e6c97f196da883-3" vertex="1">
          <mxGeometry x="30" y="65" width="100" height="60" as="geometry" />
        </mxCell>
        <mxCell id="77e6c97f196da883-4" value="System" style="swimlane;html=1;startSize=20;" parent="77e6c97f196da883-1" vertex="1">
          <mxGeometry x="320" y="20" width="187.5" height="960" as="geometry" />
        </mxCell>
        <mxCell id="6CpwiZrn1924ETf3o55--1" value="Policy execution" style="rounded=0;whiteSpace=wrap;html=1;shadow=0;labelBackgroundColor=none;strokeWidth=1;fontFamily=Verdana;fontSize=12;align=center;" vertex="1" parent="77e6c97f196da883-4">
          <mxGeometry x="30" y="65" width="100" height="60" as="geometry" />
        </mxCell>
        <mxCell id="6CpwiZrn1924ETf3o55--3" value="" style="rhombus;whiteSpace=wrap;html=1;rounded=0;shadow=0;fontFamily=Verdana;fontSize=12;strokeWidth=1;" vertex="1" parent="77e6c97f196da883-4">
          <mxGeometry x="65" y="182.5" width="30" height="30" as="geometry" />
        </mxCell>
        <mxCell id="6CpwiZrn1924ETf3o55--4" value="" style="edgeStyle=orthogonalEdgeStyle;rounded=0;orthogonalLoop=1;jettySize=auto;html=1;fontSize=12;" edge="1" parent="77e6c97f196da883-4" source="6CpwiZrn1924ETf3o55--1" target="6CpwiZrn1924ETf3o55--3">
          <mxGeometry relative="1" as="geometry" />
        </mxCell>
        <mxCell id="77e6c97f196da883-5" value="DC/CDL" style="swimlane;html=1;startSize=20;" parent="77e6c97f196da883-1" vertex="1">
          <mxGeometry x="507.5" y="20" width="160" height="960" as="geometry" />
        </mxCell>
        <mxCell id="6CpwiZrn1924ETf3o55--5" value="Check CIC/PCB" style="whiteSpace=wrap;html=1;rounded=0;shadow=0;fontFamily=Verdana;fontSize=12;strokeWidth=1;" vertex="1" parent="77e6c97f196da883-5">
          <mxGeometry x="20" y="167.5" width="120" height="60" as="geometry" />
        </mxCell>
        <mxCell id="6CpwiZrn1924ETf3o55--7" value="" style="rhombus;whiteSpace=wrap;html=1;rounded=0;shadow=0;fontFamily=Verdana;fontSize=12;strokeWidth=1;" vertex="1" parent="77e6c97f196da883-5">
          <mxGeometry x="65" y="291.25" width="30" height="30" as="geometry" />
        </mxCell>
        <mxCell id="6CpwiZrn1924ETf3o55--8" value="" style="edgeStyle=orthogonalEdgeStyle;rounded=0;orthogonalLoop=1;jettySize=auto;html=1;fontSize=12;" edge="1" parent="77e6c97f196da883-5" source="6CpwiZrn1924ETf3o55--5" target="6CpwiZrn1924ETf3o55--7">
          <mxGeometry relative="1" as="geometry" />
        </mxCell>
        <mxCell id="6CpwiZrn1924ETf3o55--11" value="Check Loan information" style="whiteSpace=wrap;html=1;rounded=0;shadow=0;fontFamily=Verdana;fontSize=12;strokeWidth=1;" vertex="1" parent="77e6c97f196da883-5">
          <mxGeometry x="20" y="380" width="120" height="60" as="geometry" />
        </mxCell>
        <mxCell id="6CpwiZrn1924ETf3o55--12" value="" style="edgeStyle=orthogonalEdgeStyle;rounded=0;orthogonalLoop=1;jettySize=auto;html=1;fontSize=12;" edge="1" parent="77e6c97f196da883-5" source="6CpwiZrn1924ETf3o55--7" target="6CpwiZrn1924ETf3o55--11">
          <mxGeometry relative="1" as="geometry">
            <Array as="points">
              <mxPoint x="80" y="360" />
              <mxPoint x="80" y="360" />
            </Array>
          </mxGeometry>
        </mxCell>
        <mxCell id="6CpwiZrn1924ETf3o55--44" value="Pass" style="edgeLabel;html=1;align=center;verticalAlign=middle;resizable=0;points=[];fontSize=12;" vertex="1" connectable="0" parent="6CpwiZrn1924ETf3o55--12">
          <mxGeometry x="-0.1988" y="3" relative="1" as="geometry">
            <mxPoint as="offset" />
          </mxGeometry>
        </mxCell>
        <mxCell id="6CpwiZrn1924ETf3o55--13" value="" style="rhombus;whiteSpace=wrap;html=1;rounded=0;shadow=0;fontFamily=Verdana;fontSize=12;strokeWidth=1;" vertex="1" parent="77e6c97f196da883-5">
          <mxGeometry x="65" y="500" width="30" height="30" as="geometry" />
        </mxCell>
        <mxCell id="6CpwiZrn1924ETf3o55--14" value="" style="edgeStyle=orthogonalEdgeStyle;rounded=0;orthogonalLoop=1;jettySize=auto;html=1;fontSize=12;" edge="1" parent="77e6c97f196da883-5" source="6CpwiZrn1924ETf3o55--11" target="6CpwiZrn1924ETf3o55--13">
          <mxGeometry relative="1" as="geometry" />
        </mxCell>
        <mxCell id="77e6c97f196da883-6" value="CDL/PV" style="swimlane;html=1;startSize=20;" parent="77e6c97f196da883-1" vertex="1">
          <mxGeometry x="667.5" y="20" width="160" height="960" as="geometry" />
        </mxCell>
        <mxCell id="6CpwiZrn1924ETf3o55--15" value="Phone KYC" style="whiteSpace=wrap;html=1;rounded=0;shadow=0;fontFamily=Verdana;fontSize=12;strokeWidth=1;" vertex="1" parent="77e6c97f196da883-6">
          <mxGeometry x="20" y="485" width="120" height="60" as="geometry" />
        </mxCell>
        <mxCell id="77e6c97f196da883-7" value="FI" style="swimlane;html=1;startSize=20;" parent="77e6c97f196da883-1" vertex="1">
          <mxGeometry x="827.5" y="20" width="180" height="960" as="geometry" />
        </mxCell>
        <mxCell id="6CpwiZrn1924ETf3o55--17" value="FI&lt;br style=&quot;font-size: 12px;&quot;&gt;FII - FIV - FIC" style="whiteSpace=wrap;html=1;rounded=0;shadow=0;fontFamily=Verdana;fontSize=12;strokeWidth=1;" vertex="1" parent="77e6c97f196da883-7">
          <mxGeometry x="30" y="485" width="120" height="60" as="geometry" />
        </mxCell>
        <mxCell id="6CpwiZrn1924ETf3o55--21" value="" style="rhombus;whiteSpace=wrap;html=1;rounded=0;shadow=0;fontFamily=Verdana;fontSize=12;strokeWidth=1;" vertex="1" parent="77e6c97f196da883-7">
          <mxGeometry x="75" y="600" width="30" height="30" as="geometry" />
        </mxCell>
        <mxCell id="6CpwiZrn1924ETf3o55--22" value="" style="edgeStyle=orthogonalEdgeStyle;rounded=0;orthogonalLoop=1;jettySize=auto;html=1;fontSize=12;" edge="1" parent="77e6c97f196da883-7" source="6CpwiZrn1924ETf3o55--17" target="6CpwiZrn1924ETf3o55--21">
          <mxGeometry relative="1" as="geometry" />
        </mxCell>
        <mxCell id="6CpwiZrn1924ETf3o55--19" value="UW" style="swimlane;html=1;startSize=20;" vertex="1" parent="77e6c97f196da883-1">
          <mxGeometry x="1007.5" y="20" width="180" height="960" as="geometry" />
        </mxCell>
        <mxCell id="6CpwiZrn1924ETf3o55--23" value="Credit approval" style="whiteSpace=wrap;html=1;rounded=0;shadow=0;fontFamily=Verdana;fontSize=12;strokeWidth=1;" vertex="1" parent="6CpwiZrn1924ETf3o55--19">
          <mxGeometry x="30" y="585" width="120" height="60" as="geometry" />
        </mxCell>
        <mxCell id="6CpwiZrn1924ETf3o55--27" value="" style="rhombus;whiteSpace=wrap;html=1;rounded=0;shadow=0;fontFamily=Verdana;fontSize=12;strokeWidth=1;" vertex="1" parent="6CpwiZrn1924ETf3o55--19">
          <mxGeometry x="75" y="700" width="30" height="30" as="geometry" />
        </mxCell>
        <mxCell id="6CpwiZrn1924ETf3o55--28" value="" style="edgeStyle=orthogonalEdgeStyle;rounded=0;orthogonalLoop=1;jettySize=auto;html=1;fontSize=12;" edge="1" parent="6CpwiZrn1924ETf3o55--19" source="6CpwiZrn1924ETf3o55--23" target="6CpwiZrn1924ETf3o55--27">
          <mxGeometry relative="1" as="geometry" />
        </mxCell>
        <mxCell id="6CpwiZrn1924ETf3o55--25" value="Payment" style="swimlane;html=1;startSize=20;" vertex="1" parent="77e6c97f196da883-1">
          <mxGeometry x="1187.5" y="20" width="180" height="960" as="geometry" />
        </mxCell>
        <mxCell id="6CpwiZrn1924ETf3o55--29" value="Make disburse order" style="whiteSpace=wrap;html=1;rounded=0;shadow=0;fontFamily=Verdana;fontSize=12;strokeWidth=1;" vertex="1" parent="6CpwiZrn1924ETf3o55--25">
          <mxGeometry x="32.5" y="685" width="120" height="60" as="geometry" />
        </mxCell>
        <mxCell id="6CpwiZrn1924ETf3o55--35" style="edgeStyle=orthogonalEdgeStyle;rounded=0;orthogonalLoop=1;jettySize=auto;html=1;" edge="1" parent="6CpwiZrn1924ETf3o55--25" source="6CpwiZrn1924ETf3o55--31" target="6CpwiZrn1924ETf3o55--34">
          <mxGeometry relative="1" as="geometry" />
        </mxCell>
        <mxCell id="6CpwiZrn1924ETf3o55--31" value="Check disburse order" style="whiteSpace=wrap;html=1;rounded=0;shadow=0;fontFamily=Verdana;fontSize=12;strokeWidth=1;" vertex="1" parent="6CpwiZrn1924ETf3o55--25">
          <mxGeometry x="32.5" y="800" width="120" height="60" as="geometry" />
        </mxCell>
        <mxCell id="6CpwiZrn1924ETf3o55--32" value="" style="edgeStyle=orthogonalEdgeStyle;rounded=0;orthogonalLoop=1;jettySize=auto;html=1;fontSize=12;" edge="1" parent="6CpwiZrn1924ETf3o55--25" source="6CpwiZrn1924ETf3o55--29" target="6CpwiZrn1924ETf3o55--31">
          <mxGeometry relative="1" as="geometry" />
        </mxCell>
        <mxCell id="6CpwiZrn1924ETf3o55--34" value="" style="ellipse;html=1;shape=endState;fillColor=#000000;strokeColor=#000000;rounded=0;" vertex="1" parent="6CpwiZrn1924ETf3o55--25">
          <mxGeometry x="77.5" y="910" width="30" height="30" as="geometry" />
        </mxCell>
        <mxCell id="6CpwiZrn1924ETf3o55--2" value="" style="edgeStyle=orthogonalEdgeStyle;rounded=0;orthogonalLoop=1;jettySize=auto;html=1;fontSize=12;" edge="1" parent="77e6c97f196da883-1" source="77e6c97f196da883-11" target="6CpwiZrn1924ETf3o55--1">
          <mxGeometry relative="1" as="geometry" />
        </mxCell>
        <mxCell id="6CpwiZrn1924ETf3o55--6" value="" style="edgeStyle=orthogonalEdgeStyle;rounded=0;orthogonalLoop=1;jettySize=auto;html=1;fontSize=12;" edge="1" parent="77e6c97f196da883-1" source="6CpwiZrn1924ETf3o55--3" target="6CpwiZrn1924ETf3o55--5">
          <mxGeometry relative="1" as="geometry">
            <Array as="points">
              <mxPoint x="450" y="218" />
              <mxPoint x="450" y="218" />
            </Array>
          </mxGeometry>
        </mxCell>
        <mxCell id="6CpwiZrn1924ETf3o55--41" value="Pass" style="edgeLabel;html=1;align=center;verticalAlign=middle;resizable=0;points=[];fontSize=12;" vertex="1" connectable="0" parent="6CpwiZrn1924ETf3o55--6">
          <mxGeometry x="0.2089" relative="1" as="geometry">
            <mxPoint x="-13" y="-7.5" as="offset" />
          </mxGeometry>
        </mxCell>
        <mxCell id="6CpwiZrn1924ETf3o55--10" value="" style="edgeStyle=orthogonalEdgeStyle;rounded=0;orthogonalLoop=1;jettySize=auto;html=1;fontSize=12;" edge="1" parent="77e6c97f196da883-1" source="6CpwiZrn1924ETf3o55--7" target="6CpwiZrn1924ETf3o55--9">
          <mxGeometry relative="1" as="geometry" />
        </mxCell>
        <mxCell id="6CpwiZrn1924ETf3o55--43" value="Fail" style="edgeLabel;html=1;align=center;verticalAlign=middle;resizable=0;points=[];fontSize=12;" vertex="1" connectable="0" parent="6CpwiZrn1924ETf3o55--10">
          <mxGeometry x="-0.6601" y="1" relative="1" as="geometry">
            <mxPoint x="1" as="offset" />
          </mxGeometry>
        </mxCell>
        <mxCell id="6CpwiZrn1924ETf3o55--16" value="" style="edgeStyle=orthogonalEdgeStyle;rounded=0;orthogonalLoop=1;jettySize=auto;html=1;fontSize=12;" edge="1" parent="77e6c97f196da883-1" source="6CpwiZrn1924ETf3o55--13" target="6CpwiZrn1924ETf3o55--15">
          <mxGeometry relative="1" as="geometry" />
        </mxCell>
        <mxCell id="6CpwiZrn1924ETf3o55--45" value="Pass" style="edgeLabel;html=1;align=center;verticalAlign=middle;resizable=0;points=[];fontSize=12;" vertex="1" connectable="0" parent="6CpwiZrn1924ETf3o55--16">
          <mxGeometry x="-0.2588" y="-4" relative="1" as="geometry">
            <mxPoint as="offset" />
          </mxGeometry>
        </mxCell>
        <mxCell id="6CpwiZrn1924ETf3o55--18" value="" style="edgeStyle=orthogonalEdgeStyle;rounded=0;orthogonalLoop=1;jettySize=auto;html=1;fontSize=12;" edge="1" parent="77e6c97f196da883-1" source="6CpwiZrn1924ETf3o55--15" target="6CpwiZrn1924ETf3o55--17">
          <mxGeometry relative="1" as="geometry" />
        </mxCell>
        <mxCell id="6CpwiZrn1924ETf3o55--24" value="" style="edgeStyle=orthogonalEdgeStyle;rounded=0;orthogonalLoop=1;jettySize=auto;html=1;fontSize=12;" edge="1" parent="77e6c97f196da883-1" source="6CpwiZrn1924ETf3o55--21" target="6CpwiZrn1924ETf3o55--23">
          <mxGeometry relative="1" as="geometry" />
        </mxCell>
        <mxCell id="6CpwiZrn1924ETf3o55--47" value="Pass" style="edgeLabel;html=1;align=center;verticalAlign=middle;resizable=0;points=[];fontSize=12;" vertex="1" connectable="0" parent="6CpwiZrn1924ETf3o55--24">
          <mxGeometry x="-0.2857" relative="1" as="geometry">
            <mxPoint as="offset" />
          </mxGeometry>
        </mxCell>
        <mxCell id="6CpwiZrn1924ETf3o55--30" value="" style="edgeStyle=orthogonalEdgeStyle;rounded=0;orthogonalLoop=1;jettySize=auto;html=1;fontSize=12;" edge="1" parent="77e6c97f196da883-1" source="6CpwiZrn1924ETf3o55--27" target="6CpwiZrn1924ETf3o55--29">
          <mxGeometry relative="1" as="geometry" />
        </mxCell>
        <mxCell id="6CpwiZrn1924ETf3o55--49" value="Pass" style="edgeLabel;html=1;align=center;verticalAlign=middle;resizable=0;points=[];fontSize=12;" vertex="1" connectable="0" parent="6CpwiZrn1924ETf3o55--30">
          <mxGeometry x="-0.3209" y="-2" relative="1" as="geometry">
            <mxPoint as="offset" />
          </mxGeometry>
        </mxCell>
        <mxCell id="6CpwiZrn1924ETf3o55--36" style="edgeStyle=orthogonalEdgeStyle;rounded=0;orthogonalLoop=1;jettySize=auto;html=1;entryX=0;entryY=0.5;entryDx=0;entryDy=0;" edge="1" parent="77e6c97f196da883-1" source="6CpwiZrn1924ETf3o55--27" target="6CpwiZrn1924ETf3o55--34">
          <mxGeometry relative="1" as="geometry">
            <Array as="points">
              <mxPoint x="1098" y="945" />
            </Array>
          </mxGeometry>
        </mxCell>
        <mxCell id="6CpwiZrn1924ETf3o55--50" value="Fail" style="edgeLabel;html=1;align=center;verticalAlign=middle;resizable=0;points=[];fontSize=12;" vertex="1" connectable="0" parent="6CpwiZrn1924ETf3o55--36">
          <mxGeometry x="-0.7021" relative="1" as="geometry">
            <mxPoint as="offset" />
          </mxGeometry>
        </mxCell>
        <mxCell id="6CpwiZrn1924ETf3o55--37" style="edgeStyle=orthogonalEdgeStyle;rounded=0;orthogonalLoop=1;jettySize=auto;html=1;entryX=0;entryY=0.5;entryDx=0;entryDy=0;" edge="1" parent="77e6c97f196da883-1" source="6CpwiZrn1924ETf3o55--21" target="6CpwiZrn1924ETf3o55--34">
          <mxGeometry relative="1" as="geometry">
            <Array as="points">
              <mxPoint x="918" y="945" />
            </Array>
          </mxGeometry>
        </mxCell>
        <mxCell id="6CpwiZrn1924ETf3o55--48" value="Fail" style="edgeLabel;html=1;align=center;verticalAlign=middle;resizable=0;points=[];fontSize=12;" vertex="1" connectable="0" parent="6CpwiZrn1924ETf3o55--37">
          <mxGeometry x="-0.7977" y="2" relative="1" as="geometry">
            <mxPoint as="offset" />
          </mxGeometry>
        </mxCell>
        <mxCell id="6CpwiZrn1924ETf3o55--38" style="edgeStyle=orthogonalEdgeStyle;rounded=0;orthogonalLoop=1;jettySize=auto;html=1;entryX=0;entryY=0.5;entryDx=0;entryDy=0;" edge="1" parent="77e6c97f196da883-1" source="6CpwiZrn1924ETf3o55--13" target="6CpwiZrn1924ETf3o55--34">
          <mxGeometry relative="1" as="geometry">
            <Array as="points">
              <mxPoint x="588" y="945" />
            </Array>
          </mxGeometry>
        </mxCell>
        <mxCell id="6CpwiZrn1924ETf3o55--46" value="Fail" style="edgeLabel;html=1;align=center;verticalAlign=middle;resizable=0;points=[];fontSize=12;" vertex="1" connectable="0" parent="6CpwiZrn1924ETf3o55--38">
          <mxGeometry x="-0.8825" y="4" relative="1" as="geometry">
            <mxPoint as="offset" />
          </mxGeometry>
        </mxCell>
        <mxCell id="6CpwiZrn1924ETf3o55--39" style="edgeStyle=orthogonalEdgeStyle;rounded=0;orthogonalLoop=1;jettySize=auto;html=1;entryX=0;entryY=0.5;entryDx=0;entryDy=0;" edge="1" parent="77e6c97f196da883-1" source="6CpwiZrn1924ETf3o55--3" target="6CpwiZrn1924ETf3o55--34">
          <mxGeometry relative="1" as="geometry">
            <Array as="points">
              <mxPoint x="400" y="945" />
            </Array>
          </mxGeometry>
        </mxCell>
        <mxCell id="6CpwiZrn1924ETf3o55--42" value="Fail" style="edgeLabel;html=1;align=center;verticalAlign=middle;resizable=0;points=[];fontSize=12;" vertex="1" connectable="0" parent="6CpwiZrn1924ETf3o55--39">
          <mxGeometry x="-0.8282" relative="1" as="geometry">
            <mxPoint as="offset" />
          </mxGeometry>
        </mxCell>
      </root>
    </mxGraphModel>
  </diagram>
</mxfile>
